<mxfile host="65bd71144e" pages="4">
    <diagram id="7ODxCcDoEwgmQqYdMz3D" name="Authenticate">
        <mxGraphModel dx="1641" dy="779" grid="1" gridSize="10" guides="1" tooltips="1" connect="1" arrows="1" fold="1" page="0" pageScale="1" pageWidth="850" pageHeight="1100" math="0" shadow="0">
            <root>
                <mxCell id="0"/>
                <mxCell id="1" parent="0"/>
                <mxCell id="IueTWrzZyYqcNv7GjwyF-5" value="" style="endArrow=none;dashed=1;html=1;" parent="1" edge="1">
                    <mxGeometry width="50" height="50" relative="1" as="geometry">
                        <mxPoint x="80" y="160" as="sourcePoint"/>
                        <mxPoint x="800" y="160" as="targetPoint"/>
                    </mxGeometry>
                </mxCell>
                <mxCell id="IueTWrzZyYqcNv7GjwyF-6" value="" style="endArrow=none;dashed=1;html=1;" parent="1" edge="1">
                    <mxGeometry width="50" height="50" relative="1" as="geometry">
                        <mxPoint x="440" y="810" as="sourcePoint"/>
                        <mxPoint x="440" y="80" as="targetPoint"/>
                    </mxGeometry>
                </mxCell>
                <mxCell id="IueTWrzZyYqcNv7GjwyF-8" value="Client" style="text;html=1;strokeColor=none;fillColor=none;align=center;verticalAlign=middle;whiteSpace=wrap;rounded=0;fontSize=22;" parent="1" vertex="1">
                    <mxGeometry x="160" y="100" width="200" height="20" as="geometry"/>
                </mxCell>
                <mxCell id="IueTWrzZyYqcNv7GjwyF-9" value="Server" style="text;html=1;strokeColor=none;fillColor=none;align=center;verticalAlign=middle;whiteSpace=wrap;rounded=0;fontSize=22;" parent="1" vertex="1">
                    <mxGeometry x="520" y="100" width="200" height="20" as="geometry"/>
                </mxCell>
                <mxCell id="IueTWrzZyYqcNv7GjwyF-12" value="" style="endArrow=classic;html=1;fontSize=22;exitX=1;exitY=0;exitDx=0;exitDy=0;" parent="1" edge="1">
                    <mxGeometry width="50" height="50" relative="1" as="geometry">
                        <mxPoint x="360" y="200" as="sourcePoint"/>
                        <mxPoint x="520" y="200" as="targetPoint"/>
                    </mxGeometry>
                </mxCell>
                <mxCell id="IueTWrzZyYqcNv7GjwyF-17" style="edgeStyle=orthogonalEdgeStyle;rounded=0;orthogonalLoop=1;jettySize=auto;html=1;exitX=0;exitY=0.5;exitDx=0;exitDy=0;fontSize=22;entryX=1;entryY=1;entryDx=0;entryDy=0;" parent="1" source="IueTWrzZyYqcNv7GjwyF-14" target="IueTWrzZyYqcNv7GjwyF-15" edge="1">
                    <mxGeometry relative="1" as="geometry">
                        <mxPoint x="370" y="240" as="targetPoint"/>
                        <Array as="points">
                            <mxPoint x="520" y="240"/>
                        </Array>
                    </mxGeometry>
                </mxCell>
                <mxCell id="IueTWrzZyYqcNv7GjwyF-14" value="no token? &lt;font color=&quot;#ea6b66&quot;&gt;401&lt;/font&gt;" style="rounded=0;whiteSpace=wrap;html=1;fontSize=22;" parent="1" vertex="1">
                    <mxGeometry x="520" y="200" width="240" height="40" as="geometry"/>
                </mxCell>
                <mxCell id="IueTWrzZyYqcNv7GjwyF-15" value="/admin" style="rounded=0;whiteSpace=wrap;html=1;fontSize=22;" parent="1" vertex="1">
                    <mxGeometry x="120" y="200" width="240" height="40" as="geometry"/>
                </mxCell>
                <mxCell id="IueTWrzZyYqcNv7GjwyF-20" style="edgeStyle=orthogonalEdgeStyle;rounded=0;orthogonalLoop=1;jettySize=auto;html=1;entryX=0;entryY=0;entryDx=0;entryDy=0;fontSize=22;" parent="1" source="IueTWrzZyYqcNv7GjwyF-18" target="IueTWrzZyYqcNv7GjwyF-19" edge="1">
                    <mxGeometry relative="1" as="geometry">
                        <Array as="points">
                            <mxPoint x="390" y="280"/>
                            <mxPoint x="390" y="280"/>
                        </Array>
                    </mxGeometry>
                </mxCell>
                <mxCell id="IueTWrzZyYqcNv7GjwyF-35" style="edgeStyle=orthogonalEdgeStyle;rounded=0;orthogonalLoop=1;jettySize=auto;html=1;fontSize=14;" parent="1" source="IueTWrzZyYqcNv7GjwyF-18" target="IueTWrzZyYqcNv7GjwyF-33" edge="1">
                    <mxGeometry relative="1" as="geometry">
                        <Array as="points">
                            <mxPoint x="60" y="480"/>
                            <mxPoint x="60" y="480"/>
                        </Array>
                    </mxGeometry>
                </mxCell>
                <mxCell id="IueTWrzZyYqcNv7GjwyF-18" value="/login&lt;br&gt;&lt;br&gt;username &amp;amp; password" style="rounded=0;whiteSpace=wrap;html=1;fontSize=22;" parent="1" vertex="1">
                    <mxGeometry x="120" y="280" width="240" height="240" as="geometry"/>
                </mxCell>
                <mxCell id="IueTWrzZyYqcNv7GjwyF-24" style="edgeStyle=orthogonalEdgeStyle;rounded=0;orthogonalLoop=1;jettySize=auto;html=1;entryX=0;entryY=0.5;entryDx=0;entryDy=0;fontSize=14;" parent="1" source="IueTWrzZyYqcNv7GjwyF-19" target="IueTWrzZyYqcNv7GjwyF-23" edge="1">
                    <mxGeometry relative="1" as="geometry"/>
                </mxCell>
                <mxCell id="IueTWrzZyYqcNv7GjwyF-26" style="edgeStyle=orthogonalEdgeStyle;rounded=0;orthogonalLoop=1;jettySize=auto;html=1;fontSize=14;" parent="1" source="IueTWrzZyYqcNv7GjwyF-19" edge="1">
                    <mxGeometry relative="1" as="geometry">
                        <mxPoint x="360" y="440" as="targetPoint"/>
                        <Array as="points">
                            <mxPoint x="470" y="440"/>
                            <mxPoint x="470" y="440"/>
                        </Array>
                    </mxGeometry>
                </mxCell>
                <mxCell id="IueTWrzZyYqcNv7GjwyF-19" value="Authenticate API&lt;br&gt;&lt;b&gt;Logic&lt;/b&gt;" style="rounded=0;whiteSpace=wrap;html=1;fontSize=22;" parent="1" vertex="1">
                    <mxGeometry x="520" y="280" width="240" height="160" as="geometry"/>
                </mxCell>
                <mxCell id="IueTWrzZyYqcNv7GjwyF-21" value="username&amp;amp;password" style="rounded=0;whiteSpace=wrap;html=1;fontSize=14;fillColor=#dae8fc;strokeColor=#6c8ebf;" parent="1" vertex="1">
                    <mxGeometry x="360" y="280" width="140" height="30" as="geometry"/>
                </mxCell>
                <mxCell id="IueTWrzZyYqcNv7GjwyF-23" value="DB" style="shape=datastore;whiteSpace=wrap;html=1;fontSize=14;fillColor=#f8cecc;strokeColor=#b85450;" parent="1" vertex="1">
                    <mxGeometry x="920" y="285" width="120" height="150" as="geometry"/>
                </mxCell>
                <mxCell id="IueTWrzZyYqcNv7GjwyF-27" value="token" style="rounded=0;whiteSpace=wrap;html=1;fontSize=14;fillColor=#fff2cc;strokeColor=#d6b656;" parent="1" vertex="1">
                    <mxGeometry x="450" y="440" width="70" height="30" as="geometry"/>
                </mxCell>
                <mxCell id="IueTWrzZyYqcNv7GjwyF-30" style="edgeStyle=orthogonalEdgeStyle;rounded=0;orthogonalLoop=1;jettySize=auto;html=1;entryX=0;entryY=0;entryDx=0;entryDy=0;fontSize=14;" parent="1" source="IueTWrzZyYqcNv7GjwyF-28" target="IueTWrzZyYqcNv7GjwyF-29" edge="1">
                    <mxGeometry relative="1" as="geometry">
                        <Array as="points">
                            <mxPoint x="470" y="600"/>
                            <mxPoint x="470" y="600"/>
                        </Array>
                    </mxGeometry>
                </mxCell>
                <mxCell id="IueTWrzZyYqcNv7GjwyF-28" value="/admin" style="rounded=0;whiteSpace=wrap;html=1;fontSize=22;" parent="1" vertex="1">
                    <mxGeometry x="120" y="600" width="240" height="40" as="geometry"/>
                </mxCell>
                <mxCell id="IueTWrzZyYqcNv7GjwyF-40" style="edgeStyle=orthogonalEdgeStyle;rounded=0;orthogonalLoop=1;jettySize=auto;html=1;entryX=1;entryY=1;entryDx=0;entryDy=0;fontSize=14;" parent="1" source="IueTWrzZyYqcNv7GjwyF-29" target="IueTWrzZyYqcNv7GjwyF-28" edge="1">
                    <mxGeometry relative="1" as="geometry">
                        <Array as="points">
                            <mxPoint x="480" y="640"/>
                            <mxPoint x="480" y="640"/>
                        </Array>
                    </mxGeometry>
                </mxCell>
                <mxCell id="IueTWrzZyYqcNv7GjwyF-29" value="api" style="rounded=0;whiteSpace=wrap;html=1;fontSize=22;" parent="1" vertex="1">
                    <mxGeometry x="520" y="600" width="240" height="40" as="geometry"/>
                </mxCell>
                <mxCell id="IueTWrzZyYqcNv7GjwyF-37" style="edgeStyle=orthogonalEdgeStyle;rounded=0;orthogonalLoop=1;jettySize=auto;html=1;fontSize=14;" parent="1" source="IueTWrzZyYqcNv7GjwyF-33" target="IueTWrzZyYqcNv7GjwyF-28" edge="1">
                    <mxGeometry relative="1" as="geometry">
                        <Array as="points">
                            <mxPoint x="-60" y="560"/>
                            <mxPoint x="240" y="560"/>
                        </Array>
                    </mxGeometry>
                </mxCell>
                <mxCell id="IueTWrzZyYqcNv7GjwyF-54" style="edgeStyle=orthogonalEdgeStyle;rounded=0;orthogonalLoop=1;jettySize=auto;html=1;fontSize=14;" parent="1" source="IueTWrzZyYqcNv7GjwyF-33" edge="1">
                    <mxGeometry relative="1" as="geometry">
                        <mxPoint x="240" y="720" as="targetPoint"/>
                        <Array as="points">
                            <mxPoint x="-60" y="680"/>
                            <mxPoint x="240" y="680"/>
                        </Array>
                    </mxGeometry>
                </mxCell>
                <mxCell id="IueTWrzZyYqcNv7GjwyF-33" value="" style="shape=cylinder2;whiteSpace=wrap;html=1;boundedLbl=1;backgroundOutline=1;size=15;fontSize=14;" parent="1" vertex="1">
                    <mxGeometry x="-80" y="440" width="40" height="80" as="geometry"/>
                </mxCell>
                <mxCell id="IueTWrzZyYqcNv7GjwyF-36" value="localStorage&lt;br&gt;/sessionStorage" style="text;html=1;strokeColor=none;fillColor=none;align=center;verticalAlign=middle;whiteSpace=wrap;rounded=0;fontSize=14;" parent="1" vertex="1">
                    <mxGeometry x="-115" y="400" width="110" height="40" as="geometry"/>
                </mxCell>
                <mxCell id="IueTWrzZyYqcNv7GjwyF-38" value="token" style="rounded=0;whiteSpace=wrap;html=1;fontSize=14;fillColor=#fff2cc;strokeColor=#d6b656;" parent="1" vertex="1">
                    <mxGeometry x="-40" y="530" width="70" height="30" as="geometry"/>
                </mxCell>
                <mxCell id="IueTWrzZyYqcNv7GjwyF-39" value="token" style="rounded=0;whiteSpace=wrap;html=1;fontSize=14;fillColor=#fff2cc;strokeColor=#d6b656;" parent="1" vertex="1">
                    <mxGeometry x="360" y="570" width="70" height="30" as="geometry"/>
                </mxCell>
                <mxCell id="IueTWrzZyYqcNv7GjwyF-49" value="/profile" style="rounded=0;whiteSpace=wrap;html=1;fontSize=22;" parent="1" vertex="1">
                    <mxGeometry x="120" y="721" width="240" height="40" as="geometry"/>
                </mxCell>
                <mxCell id="IueTWrzZyYqcNv7GjwyF-53" style="edgeStyle=orthogonalEdgeStyle;rounded=0;orthogonalLoop=1;jettySize=auto;html=1;entryX=1;entryY=1;entryDx=0;entryDy=0;fontSize=14;" parent="1" source="IueTWrzZyYqcNv7GjwyF-50" target="IueTWrzZyYqcNv7GjwyF-49" edge="1">
                    <mxGeometry relative="1" as="geometry">
                        <Array as="points">
                            <mxPoint x="480" y="761"/>
                            <mxPoint x="480" y="761"/>
                        </Array>
                    </mxGeometry>
                </mxCell>
                <mxCell id="IueTWrzZyYqcNv7GjwyF-50" value="api" style="rounded=0;whiteSpace=wrap;html=1;fontSize=22;" parent="1" vertex="1">
                    <mxGeometry x="520" y="721" width="240" height="40" as="geometry"/>
                </mxCell>
                <mxCell id="IueTWrzZyYqcNv7GjwyF-51" style="edgeStyle=orthogonalEdgeStyle;rounded=0;orthogonalLoop=1;jettySize=auto;html=1;entryX=0;entryY=0;entryDx=0;entryDy=0;fontSize=14;" parent="1" edge="1">
                    <mxGeometry relative="1" as="geometry">
                        <mxPoint x="360" y="720" as="sourcePoint"/>
                        <mxPoint x="520" y="720" as="targetPoint"/>
                        <Array as="points">
                            <mxPoint x="470" y="720"/>
                            <mxPoint x="470" y="720"/>
                        </Array>
                    </mxGeometry>
                </mxCell>
                <mxCell id="IueTWrzZyYqcNv7GjwyF-52" value="token" style="rounded=0;whiteSpace=wrap;html=1;fontSize=14;fillColor=#fff2cc;strokeColor=#d6b656;" parent="1" vertex="1">
                    <mxGeometry x="360" y="691" width="70" height="30" as="geometry"/>
                </mxCell>
                <mxCell id="IueTWrzZyYqcNv7GjwyF-55" value="token" style="rounded=0;whiteSpace=wrap;html=1;fontSize=14;fillColor=#fff2cc;strokeColor=#d6b656;" parent="1" vertex="1">
                    <mxGeometry x="-40" y="650" width="70" height="30" as="geometry"/>
                </mxCell>
                <mxCell id="zjJ3dqoq5hFViEp7_ZF8-1" value="token" style="rounded=0;whiteSpace=wrap;html=1;fontSize=14;fillColor=#fff2cc;strokeColor=#d6b656;" parent="1" vertex="1">
                    <mxGeometry x="10" y="450" width="70" height="30" as="geometry"/>
                </mxCell>
                <mxCell id="iozN0L_CzYF-B_GySOYj-1" value="401" style="rounded=0;whiteSpace=wrap;html=1;fontSize=14;fillColor=#fad9d5;strokeColor=#ae4132;" parent="1" vertex="1">
                    <mxGeometry x="450" y="240" width="70" height="30" as="geometry"/>
                </mxCell>
            </root>
        </mxGraphModel>
    </diagram>
    <diagram name="Refresh Token" id="KeIIp_bcZxnwPQyzyQxw">
        <mxGraphModel dx="1641" dy="779" grid="1" gridSize="10" guides="1" tooltips="1" connect="1" arrows="1" fold="1" page="0" pageScale="1" pageWidth="850" pageHeight="1100" math="0" shadow="0">
            <root>
                <mxCell id="P4E0ZwpAomqUTbpqrofh-0"/>
                <mxCell id="P4E0ZwpAomqUTbpqrofh-1" parent="P4E0ZwpAomqUTbpqrofh-0"/>
                <mxCell id="P4E0ZwpAomqUTbpqrofh-2" value="" style="endArrow=none;dashed=1;html=1;" parent="P4E0ZwpAomqUTbpqrofh-1" edge="1">
                    <mxGeometry width="50" height="50" relative="1" as="geometry">
                        <mxPoint x="80" y="160" as="sourcePoint"/>
                        <mxPoint x="800" y="160" as="targetPoint"/>
                    </mxGeometry>
                </mxCell>
                <mxCell id="P4E0ZwpAomqUTbpqrofh-3" value="" style="endArrow=none;dashed=1;html=1;" parent="P4E0ZwpAomqUTbpqrofh-1" edge="1">
                    <mxGeometry width="50" height="50" relative="1" as="geometry">
                        <mxPoint x="440" y="1120" as="sourcePoint"/>
                        <mxPoint x="440" y="80" as="targetPoint"/>
                    </mxGeometry>
                </mxCell>
                <mxCell id="P4E0ZwpAomqUTbpqrofh-4" value="Client" style="text;html=1;strokeColor=none;fillColor=none;align=center;verticalAlign=middle;whiteSpace=wrap;rounded=0;fontSize=22;" parent="P4E0ZwpAomqUTbpqrofh-1" vertex="1">
                    <mxGeometry x="160" y="100" width="200" height="20" as="geometry"/>
                </mxCell>
                <mxCell id="P4E0ZwpAomqUTbpqrofh-5" value="Server" style="text;html=1;strokeColor=none;fillColor=none;align=center;verticalAlign=middle;whiteSpace=wrap;rounded=0;fontSize=22;" parent="P4E0ZwpAomqUTbpqrofh-1" vertex="1">
                    <mxGeometry x="520" y="100" width="200" height="20" as="geometry"/>
                </mxCell>
                <mxCell id="P4E0ZwpAomqUTbpqrofh-6" value="" style="endArrow=classic;html=1;fontSize=22;exitX=1;exitY=0;exitDx=0;exitDy=0;" parent="P4E0ZwpAomqUTbpqrofh-1" edge="1">
                    <mxGeometry width="50" height="50" relative="1" as="geometry">
                        <mxPoint x="360" y="200" as="sourcePoint"/>
                        <mxPoint x="520" y="200" as="targetPoint"/>
                    </mxGeometry>
                </mxCell>
                <mxCell id="P4E0ZwpAomqUTbpqrofh-7" style="edgeStyle=orthogonalEdgeStyle;rounded=0;orthogonalLoop=1;jettySize=auto;html=1;exitX=0;exitY=0.5;exitDx=0;exitDy=0;fontSize=22;entryX=1;entryY=1;entryDx=0;entryDy=0;" parent="P4E0ZwpAomqUTbpqrofh-1" source="P4E0ZwpAomqUTbpqrofh-8" target="P4E0ZwpAomqUTbpqrofh-9" edge="1">
                    <mxGeometry relative="1" as="geometry">
                        <mxPoint x="370" y="240" as="targetPoint"/>
                        <Array as="points">
                            <mxPoint x="520" y="240"/>
                        </Array>
                    </mxGeometry>
                </mxCell>
                <mxCell id="P4E0ZwpAomqUTbpqrofh-8" value="no token? &lt;font color=&quot;#ea6b66&quot;&gt;401&lt;/font&gt;" style="rounded=0;whiteSpace=wrap;html=1;fontSize=22;" parent="P4E0ZwpAomqUTbpqrofh-1" vertex="1">
                    <mxGeometry x="520" y="200" width="240" height="40" as="geometry"/>
                </mxCell>
                <mxCell id="P4E0ZwpAomqUTbpqrofh-9" value="/admin" style="rounded=0;whiteSpace=wrap;html=1;fontSize=22;" parent="P4E0ZwpAomqUTbpqrofh-1" vertex="1">
                    <mxGeometry x="120" y="200" width="240" height="40" as="geometry"/>
                </mxCell>
                <mxCell id="P4E0ZwpAomqUTbpqrofh-10" style="edgeStyle=orthogonalEdgeStyle;rounded=0;orthogonalLoop=1;jettySize=auto;html=1;entryX=0;entryY=0;entryDx=0;entryDy=0;fontSize=22;" parent="P4E0ZwpAomqUTbpqrofh-1" source="P4E0ZwpAomqUTbpqrofh-12" target="P4E0ZwpAomqUTbpqrofh-15" edge="1">
                    <mxGeometry relative="1" as="geometry">
                        <Array as="points">
                            <mxPoint x="390" y="280"/>
                            <mxPoint x="390" y="280"/>
                        </Array>
                    </mxGeometry>
                </mxCell>
                <mxCell id="P4E0ZwpAomqUTbpqrofh-11" style="edgeStyle=orthogonalEdgeStyle;rounded=0;orthogonalLoop=1;jettySize=auto;html=1;fontSize=14;" parent="P4E0ZwpAomqUTbpqrofh-1" source="P4E0ZwpAomqUTbpqrofh-12" target="P4E0ZwpAomqUTbpqrofh-25" edge="1">
                    <mxGeometry relative="1" as="geometry">
                        <Array as="points">
                            <mxPoint x="60" y="480"/>
                            <mxPoint x="60" y="480"/>
                        </Array>
                    </mxGeometry>
                </mxCell>
                <mxCell id="P4E0ZwpAomqUTbpqrofh-12" value="/login&lt;br&gt;&lt;br&gt;username &amp;amp; password" style="rounded=0;whiteSpace=wrap;html=1;fontSize=22;" parent="P4E0ZwpAomqUTbpqrofh-1" vertex="1">
                    <mxGeometry x="120" y="280" width="240" height="240" as="geometry"/>
                </mxCell>
                <mxCell id="P4E0ZwpAomqUTbpqrofh-13" style="edgeStyle=orthogonalEdgeStyle;rounded=0;orthogonalLoop=1;jettySize=auto;html=1;entryX=0;entryY=0.5;entryDx=0;entryDy=0;fontSize=14;" parent="P4E0ZwpAomqUTbpqrofh-1" source="P4E0ZwpAomqUTbpqrofh-15" target="P4E0ZwpAomqUTbpqrofh-17" edge="1">
                    <mxGeometry relative="1" as="geometry"/>
                </mxCell>
                <mxCell id="P4E0ZwpAomqUTbpqrofh-14" style="edgeStyle=orthogonalEdgeStyle;rounded=0;orthogonalLoop=1;jettySize=auto;html=1;fontSize=14;" parent="P4E0ZwpAomqUTbpqrofh-1" source="P4E0ZwpAomqUTbpqrofh-15" edge="1">
                    <mxGeometry relative="1" as="geometry">
                        <mxPoint x="360" y="440" as="targetPoint"/>
                        <Array as="points">
                            <mxPoint x="470" y="440"/>
                            <mxPoint x="470" y="440"/>
                        </Array>
                    </mxGeometry>
                </mxCell>
                <mxCell id="P4E0ZwpAomqUTbpqrofh-15" value="Authenticate API&lt;br&gt;&lt;b&gt;Logic&lt;/b&gt;" style="rounded=0;whiteSpace=wrap;html=1;fontSize=22;" parent="P4E0ZwpAomqUTbpqrofh-1" vertex="1">
                    <mxGeometry x="520" y="280" width="240" height="160" as="geometry"/>
                </mxCell>
                <mxCell id="P4E0ZwpAomqUTbpqrofh-16" value="username&amp;amp;password" style="rounded=0;whiteSpace=wrap;html=1;fontSize=14;fillColor=#dae8fc;strokeColor=#6c8ebf;" parent="P4E0ZwpAomqUTbpqrofh-1" vertex="1">
                    <mxGeometry x="360" y="280" width="140" height="30" as="geometry"/>
                </mxCell>
                <mxCell id="P4E0ZwpAomqUTbpqrofh-17" value="DB" style="shape=datastore;whiteSpace=wrap;html=1;fontSize=14;fillColor=#d0cee2;strokeColor=#56517e;" parent="P4E0ZwpAomqUTbpqrofh-1" vertex="1">
                    <mxGeometry x="920" y="285" width="120" height="150" as="geometry"/>
                </mxCell>
                <mxCell id="P4E0ZwpAomqUTbpqrofh-18" value="token" style="rounded=0;whiteSpace=wrap;html=1;fontSize=14;fillColor=#fff2cc;strokeColor=#d6b656;" parent="P4E0ZwpAomqUTbpqrofh-1" vertex="1">
                    <mxGeometry x="430" y="440" width="90" height="30" as="geometry"/>
                </mxCell>
                <mxCell id="P4E0ZwpAomqUTbpqrofh-19" style="edgeStyle=orthogonalEdgeStyle;rounded=0;orthogonalLoop=1;jettySize=auto;html=1;entryX=0;entryY=0;entryDx=0;entryDy=0;fontSize=14;" parent="P4E0ZwpAomqUTbpqrofh-1" source="P4E0ZwpAomqUTbpqrofh-20" target="P4E0ZwpAomqUTbpqrofh-22" edge="1">
                    <mxGeometry relative="1" as="geometry">
                        <Array as="points">
                            <mxPoint x="470" y="600"/>
                            <mxPoint x="470" y="600"/>
                        </Array>
                    </mxGeometry>
                </mxCell>
                <mxCell id="P4E0ZwpAomqUTbpqrofh-20" value="/admin" style="rounded=0;whiteSpace=wrap;html=1;fontSize=22;" parent="P4E0ZwpAomqUTbpqrofh-1" vertex="1">
                    <mxGeometry x="120" y="600" width="240" height="40" as="geometry"/>
                </mxCell>
                <mxCell id="P4E0ZwpAomqUTbpqrofh-21" style="edgeStyle=orthogonalEdgeStyle;rounded=0;orthogonalLoop=1;jettySize=auto;html=1;entryX=1;entryY=1;entryDx=0;entryDy=0;fontSize=14;" parent="P4E0ZwpAomqUTbpqrofh-1" source="P4E0ZwpAomqUTbpqrofh-22" target="P4E0ZwpAomqUTbpqrofh-20" edge="1">
                    <mxGeometry relative="1" as="geometry">
                        <Array as="points">
                            <mxPoint x="480" y="640"/>
                            <mxPoint x="480" y="640"/>
                        </Array>
                    </mxGeometry>
                </mxCell>
                <mxCell id="P4E0ZwpAomqUTbpqrofh-22" value="api" style="rounded=0;whiteSpace=wrap;html=1;fontSize=22;" parent="P4E0ZwpAomqUTbpqrofh-1" vertex="1">
                    <mxGeometry x="520" y="600" width="240" height="40" as="geometry"/>
                </mxCell>
                <mxCell id="P4E0ZwpAomqUTbpqrofh-23" style="edgeStyle=orthogonalEdgeStyle;rounded=0;orthogonalLoop=1;jettySize=auto;html=1;fontSize=14;" parent="P4E0ZwpAomqUTbpqrofh-1" source="P4E0ZwpAomqUTbpqrofh-25" target="P4E0ZwpAomqUTbpqrofh-20" edge="1">
                    <mxGeometry relative="1" as="geometry">
                        <Array as="points">
                            <mxPoint x="-60" y="560"/>
                            <mxPoint x="240" y="560"/>
                        </Array>
                    </mxGeometry>
                </mxCell>
                <mxCell id="P4E0ZwpAomqUTbpqrofh-24" style="edgeStyle=orthogonalEdgeStyle;rounded=0;orthogonalLoop=1;jettySize=auto;html=1;fontSize=14;" parent="P4E0ZwpAomqUTbpqrofh-1" source="P4E0ZwpAomqUTbpqrofh-25" edge="1">
                    <mxGeometry relative="1" as="geometry">
                        <mxPoint x="240" y="720" as="targetPoint"/>
                        <Array as="points">
                            <mxPoint x="-60" y="680"/>
                            <mxPoint x="240" y="680"/>
                        </Array>
                    </mxGeometry>
                </mxCell>
                <mxCell id="yxS6pgzwvs54TLUrR27w-5" style="edgeStyle=orthogonalEdgeStyle;rounded=0;orthogonalLoop=1;jettySize=auto;html=1;entryX=0;entryY=0.368;entryDx=0;entryDy=0;entryPerimeter=0;" parent="P4E0ZwpAomqUTbpqrofh-1" source="P4E0ZwpAomqUTbpqrofh-25" target="P4E0ZwpAomqUTbpqrofh-29" edge="1">
                    <mxGeometry relative="1" as="geometry">
                        <Array as="points">
                            <mxPoint x="-60" y="840"/>
                            <mxPoint x="120" y="840"/>
                        </Array>
                    </mxGeometry>
                </mxCell>
                <mxCell id="P4E0ZwpAomqUTbpqrofh-25" value="" style="shape=cylinder2;whiteSpace=wrap;html=1;boundedLbl=1;backgroundOutline=1;size=15;fontSize=14;" parent="P4E0ZwpAomqUTbpqrofh-1" vertex="1">
                    <mxGeometry x="-80" y="440" width="40" height="80" as="geometry"/>
                </mxCell>
                <mxCell id="P4E0ZwpAomqUTbpqrofh-26" value="localStorage" style="text;html=1;strokeColor=none;fillColor=none;align=center;verticalAlign=middle;whiteSpace=wrap;rounded=0;fontSize=14;" parent="P4E0ZwpAomqUTbpqrofh-1" vertex="1">
                    <mxGeometry x="-115" y="400" width="110" height="40" as="geometry"/>
                </mxCell>
                <mxCell id="P4E0ZwpAomqUTbpqrofh-27" value="token" style="rounded=0;whiteSpace=wrap;html=1;fontSize=14;fillColor=#fff2cc;strokeColor=#d6b656;" parent="P4E0ZwpAomqUTbpqrofh-1" vertex="1">
                    <mxGeometry x="-40" y="530" width="70" height="30" as="geometry"/>
                </mxCell>
                <mxCell id="P4E0ZwpAomqUTbpqrofh-28" value="token" style="rounded=0;whiteSpace=wrap;html=1;fontSize=14;fillColor=#fff2cc;strokeColor=#d6b656;" parent="P4E0ZwpAomqUTbpqrofh-1" vertex="1">
                    <mxGeometry x="360" y="570" width="70" height="30" as="geometry"/>
                </mxCell>
                <mxCell id="yxS6pgzwvs54TLUrR27w-10" style="edgeStyle=orthogonalEdgeStyle;rounded=0;orthogonalLoop=1;jettySize=auto;html=1;entryX=0;entryY=0;entryDx=0;entryDy=0;" parent="P4E0ZwpAomqUTbpqrofh-1" source="P4E0ZwpAomqUTbpqrofh-29" target="yxS6pgzwvs54TLUrR27w-8" edge="1">
                    <mxGeometry relative="1" as="geometry">
                        <Array as="points">
                            <mxPoint x="400" y="840"/>
                            <mxPoint x="400" y="840"/>
                        </Array>
                    </mxGeometry>
                </mxCell>
                <mxCell id="yxS6pgzwvs54TLUrR27w-15" style="edgeStyle=orthogonalEdgeStyle;rounded=0;orthogonalLoop=1;jettySize=auto;html=1;" parent="P4E0ZwpAomqUTbpqrofh-1" source="P4E0ZwpAomqUTbpqrofh-29" target="P4E0ZwpAomqUTbpqrofh-25" edge="1">
                    <mxGeometry relative="1" as="geometry">
                        <Array as="points">
                            <mxPoint x="-70" y="960"/>
                        </Array>
                    </mxGeometry>
                </mxCell>
                <mxCell id="yxS6pgzwvs54TLUrR27w-18" style="edgeStyle=orthogonalEdgeStyle;rounded=0;orthogonalLoop=1;jettySize=auto;html=1;entryX=0;entryY=0;entryDx=0;entryDy=0;" parent="P4E0ZwpAomqUTbpqrofh-1" source="P4E0ZwpAomqUTbpqrofh-29" target="yxS6pgzwvs54TLUrR27w-17" edge="1">
                    <mxGeometry relative="1" as="geometry">
                        <Array as="points">
                            <mxPoint x="430" y="1040"/>
                            <mxPoint x="430" y="1040"/>
                        </Array>
                    </mxGeometry>
                </mxCell>
                <mxCell id="yxS6pgzwvs54TLUrR27w-19" style="edgeStyle=orthogonalEdgeStyle;rounded=0;orthogonalLoop=1;jettySize=auto;html=1;entryX=0;entryY=1;entryDx=0;entryDy=0;" parent="P4E0ZwpAomqUTbpqrofh-1" source="P4E0ZwpAomqUTbpqrofh-29" target="yxS6pgzwvs54TLUrR27w-17" edge="1">
                    <mxGeometry relative="1" as="geometry">
                        <Array as="points">
                            <mxPoint x="480" y="1079"/>
                            <mxPoint x="480" y="1079"/>
                        </Array>
                    </mxGeometry>
                </mxCell>
                <mxCell id="P4E0ZwpAomqUTbpqrofh-29" value="/profile" style="rounded=0;whiteSpace=wrap;html=1;fontSize=22;" parent="P4E0ZwpAomqUTbpqrofh-1" vertex="1">
                    <mxGeometry x="120" y="721" width="240" height="359" as="geometry"/>
                </mxCell>
                <mxCell id="P4E0ZwpAomqUTbpqrofh-30" style="edgeStyle=orthogonalEdgeStyle;rounded=0;orthogonalLoop=1;jettySize=auto;html=1;fontSize=14;" parent="P4E0ZwpAomqUTbpqrofh-1" source="P4E0ZwpAomqUTbpqrofh-31" edge="1">
                    <mxGeometry relative="1" as="geometry">
                        <Array as="points">
                            <mxPoint x="520" y="761"/>
                        </Array>
                        <mxPoint x="360" y="761" as="targetPoint"/>
                    </mxGeometry>
                </mxCell>
                <mxCell id="P4E0ZwpAomqUTbpqrofh-31" value="api" style="rounded=0;whiteSpace=wrap;html=1;fontSize=22;" parent="P4E0ZwpAomqUTbpqrofh-1" vertex="1">
                    <mxGeometry x="520" y="721" width="240" height="39" as="geometry"/>
                </mxCell>
                <mxCell id="P4E0ZwpAomqUTbpqrofh-32" style="edgeStyle=orthogonalEdgeStyle;rounded=0;orthogonalLoop=1;jettySize=auto;html=1;entryX=0;entryY=0;entryDx=0;entryDy=0;fontSize=14;" parent="P4E0ZwpAomqUTbpqrofh-1" edge="1">
                    <mxGeometry relative="1" as="geometry">
                        <mxPoint x="360" y="720" as="sourcePoint"/>
                        <mxPoint x="520" y="720" as="targetPoint"/>
                        <Array as="points">
                            <mxPoint x="470" y="720"/>
                            <mxPoint x="470" y="720"/>
                        </Array>
                    </mxGeometry>
                </mxCell>
                <mxCell id="P4E0ZwpAomqUTbpqrofh-33" value="token" style="rounded=0;whiteSpace=wrap;html=1;fontSize=14;fillColor=#fff2cc;strokeColor=#d6b656;" parent="P4E0ZwpAomqUTbpqrofh-1" vertex="1">
                    <mxGeometry x="360" y="690" width="70" height="30" as="geometry"/>
                </mxCell>
                <mxCell id="P4E0ZwpAomqUTbpqrofh-34" value="token" style="rounded=0;whiteSpace=wrap;html=1;fontSize=14;fillColor=#fff2cc;strokeColor=#d6b656;" parent="P4E0ZwpAomqUTbpqrofh-1" vertex="1">
                    <mxGeometry x="-40" y="650" width="70" height="30" as="geometry"/>
                </mxCell>
                <mxCell id="5mkYhqXi29CcwTzAElTT-0" value="refresh-token" style="rounded=0;whiteSpace=wrap;html=1;fontSize=14;fillColor=#fff2cc;strokeColor=#d6b656;" parent="P4E0ZwpAomqUTbpqrofh-1" vertex="1">
                    <mxGeometry x="430" y="470" width="90" height="30" as="geometry"/>
                </mxCell>
                <mxCell id="yxS6pgzwvs54TLUrR27w-1" value="refresh-token" style="rounded=0;whiteSpace=wrap;html=1;fontSize=14;fillColor=#fff2cc;strokeColor=#d6b656;" parent="P4E0ZwpAomqUTbpqrofh-1" vertex="1">
                    <mxGeometry x="-10" y="450" width="90" height="30" as="geometry"/>
                </mxCell>
                <mxCell id="yxS6pgzwvs54TLUrR27w-2" value="token" style="rounded=0;whiteSpace=wrap;html=1;fontSize=14;fillColor=#fff2cc;strokeColor=#d6b656;" parent="P4E0ZwpAomqUTbpqrofh-1" vertex="1">
                    <mxGeometry x="-10" y="420" width="90" height="30" as="geometry"/>
                </mxCell>
                <mxCell id="yxS6pgzwvs54TLUrR27w-4" value="401" style="rounded=0;whiteSpace=wrap;html=1;fontSize=14;fillColor=#f8cecc;strokeColor=#b85450;" parent="P4E0ZwpAomqUTbpqrofh-1" vertex="1">
                    <mxGeometry x="450" y="761" width="70" height="30" as="geometry"/>
                </mxCell>
                <mxCell id="yxS6pgzwvs54TLUrR27w-6" value="refresh-token" style="rounded=0;whiteSpace=wrap;html=1;fontSize=14;fillColor=#fff2cc;strokeColor=#d6b656;" parent="P4E0ZwpAomqUTbpqrofh-1" vertex="1">
                    <mxGeometry x="-40" y="810" width="90" height="30" as="geometry"/>
                </mxCell>
                <mxCell id="yxS6pgzwvs54TLUrR27w-12" style="edgeStyle=orthogonalEdgeStyle;rounded=0;orthogonalLoop=1;jettySize=auto;html=1;entryX=0.5;entryY=1;entryDx=0;entryDy=0;" parent="P4E0ZwpAomqUTbpqrofh-1" source="yxS6pgzwvs54TLUrR27w-8" target="P4E0ZwpAomqUTbpqrofh-17" edge="1">
                    <mxGeometry relative="1" as="geometry"/>
                </mxCell>
                <mxCell id="yxS6pgzwvs54TLUrR27w-13" style="edgeStyle=orthogonalEdgeStyle;rounded=0;orthogonalLoop=1;jettySize=auto;html=1;entryX=1;entryY=0.605;entryDx=0;entryDy=0;entryPerimeter=0;" parent="P4E0ZwpAomqUTbpqrofh-1" source="yxS6pgzwvs54TLUrR27w-8" target="P4E0ZwpAomqUTbpqrofh-29" edge="1">
                    <mxGeometry relative="1" as="geometry">
                        <Array as="points">
                            <mxPoint x="460" y="920"/>
                            <mxPoint x="460" y="920"/>
                        </Array>
                    </mxGeometry>
                </mxCell>
                <mxCell id="yxS6pgzwvs54TLUrR27w-8" value="Authenticate API" style="rounded=0;whiteSpace=wrap;html=1;fontSize=22;" parent="P4E0ZwpAomqUTbpqrofh-1" vertex="1">
                    <mxGeometry x="520" y="840" width="240" height="120" as="geometry"/>
                </mxCell>
                <mxCell id="yxS6pgzwvs54TLUrR27w-11" value="refresh-token" style="rounded=0;whiteSpace=wrap;html=1;fontSize=14;fillColor=#fff2cc;strokeColor=#d6b656;" parent="P4E0ZwpAomqUTbpqrofh-1" vertex="1">
                    <mxGeometry x="360" y="810" width="90" height="30" as="geometry"/>
                </mxCell>
                <mxCell id="yxS6pgzwvs54TLUrR27w-14" value="token" style="rounded=0;whiteSpace=wrap;html=1;fontSize=14;fillColor=#fff2cc;strokeColor=#d6b656;" parent="P4E0ZwpAomqUTbpqrofh-1" vertex="1">
                    <mxGeometry x="430" y="920" width="90" height="30" as="geometry"/>
                </mxCell>
                <mxCell id="yxS6pgzwvs54TLUrR27w-16" value="token" style="rounded=0;whiteSpace=wrap;html=1;fontSize=14;fillColor=#fff2cc;strokeColor=#d6b656;" parent="P4E0ZwpAomqUTbpqrofh-1" vertex="1">
                    <mxGeometry x="-40" y="930" width="70" height="30" as="geometry"/>
                </mxCell>
                <mxCell id="yxS6pgzwvs54TLUrR27w-17" value="api" style="rounded=0;whiteSpace=wrap;html=1;fontSize=22;" parent="P4E0ZwpAomqUTbpqrofh-1" vertex="1">
                    <mxGeometry x="520" y="1040" width="240" height="39" as="geometry"/>
                </mxCell>
                <mxCell id="yxS6pgzwvs54TLUrR27w-20" value="token" style="rounded=0;whiteSpace=wrap;html=1;fontSize=14;fillColor=#fff2cc;strokeColor=#d6b656;" parent="P4E0ZwpAomqUTbpqrofh-1" vertex="1">
                    <mxGeometry x="360" y="1010" width="70" height="30" as="geometry"/>
                </mxCell>
                <mxCell id="o-TODKOI2oFm2dyH5WZL-0" value="permissions" style="rounded=0;whiteSpace=wrap;html=1;fontSize=14;fillColor=#fff2cc;strokeColor=#d6b656;" parent="P4E0ZwpAomqUTbpqrofh-1" vertex="1">
                    <mxGeometry x="430" y="500" width="90" height="30" as="geometry"/>
                </mxCell>
                <mxCell id="o-TODKOI2oFm2dyH5WZL-1" value="permissions" style="rounded=0;whiteSpace=wrap;html=1;fontSize=14;fillColor=#fff2cc;strokeColor=#d6b656;" parent="P4E0ZwpAomqUTbpqrofh-1" vertex="1">
                    <mxGeometry x="-10" y="390" width="90" height="30" as="geometry"/>
                </mxCell>
            </root>
        </mxGraphModel>
    </diagram>
    <diagram name="Token" id="C_0J7WFSKaW_dQ9YwTTm">
        <mxGraphModel dx="2041" dy="779" grid="1" gridSize="10" guides="1" tooltips="1" connect="1" arrows="1" fold="1" page="0" pageScale="1" pageWidth="850" pageHeight="1100" math="0" shadow="0">
            <root>
                <mxCell id="SyJEAtmatLMatRljGqxi-0"/>
                <mxCell id="SyJEAtmatLMatRljGqxi-1" parent="SyJEAtmatLMatRljGqxi-0"/>
                <mxCell id="K-2LsAdCJPwIIRh3XGkd-1" value="" style="shape=image;verticalLabelPosition=bottom;labelBackgroundColor=#ffffff;verticalAlign=top;aspect=fixed;imageAspect=0;image=https://lh3.googleusercontent.com/proxy/avbPy9oQkfLC4MsEYzCoaEu25gGEpu83D4bsBON_u44Dvaen2tzRR7os7_EMBGV2mrA7d_LAnD0tRySYpDTbbBQQA4jJ61MAki9HRVgLFU3nPNQ;" parent="SyJEAtmatLMatRljGqxi-1" vertex="1">
                    <mxGeometry x="-200" y="40" width="445.22" height="280" as="geometry"/>
                </mxCell>
                <mxCell id="K-2LsAdCJPwIIRh3XGkd-2" value="" style="rounded=1;whiteSpace=wrap;html=1;fontSize=14;fillColor=none;strokeColor=#FF0033;dashed=1;strokeWidth=2;" parent="SyJEAtmatLMatRljGqxi-1" vertex="1">
                    <mxGeometry x="60" y="250" width="110" height="20" as="geometry"/>
                </mxCell>
                <mxCell id="K-2LsAdCJPwIIRh3XGkd-4" style="edgeStyle=orthogonalEdgeStyle;rounded=0;orthogonalLoop=1;jettySize=auto;html=1;entryX=0;entryY=0.5;entryDx=0;entryDy=0;fontSize=14;" parent="SyJEAtmatLMatRljGqxi-1" source="K-2LsAdCJPwIIRh3XGkd-3" target="K-2LsAdCJPwIIRh3XGkd-1" edge="1">
                    <mxGeometry relative="1" as="geometry"/>
                </mxCell>
                <mxCell id="K-2LsAdCJPwIIRh3XGkd-3" value="ثبت احوال" style="rounded=1;whiteSpace=wrap;html=1;strokeColor=#82b366;strokeWidth=2;fillColor=#d5e8d4;fontSize=14;" parent="SyJEAtmatLMatRljGqxi-1" vertex="1">
                    <mxGeometry x="-520" y="40" width="120" height="280" as="geometry"/>
                </mxCell>
            </root>
        </mxGraphModel>
    </diagram>
    <diagram id="CJk96h_o9jzS2SJ7oem7" name="Page-4">
        <mxGraphModel dx="1326" dy="806" grid="1" gridSize="10" guides="1" tooltips="1" connect="1" arrows="1" fold="1" page="1" pageScale="1" pageWidth="850" pageHeight="1100" math="0" shadow="0">
            <root>
                <mxCell id="s4x-vn-7q49k-3aeDGJf-0"/>
                <mxCell id="s4x-vn-7q49k-3aeDGJf-1" parent="s4x-vn-7q49k-3aeDGJf-0"/>
                <mxCell id="s4x-vn-7q49k-3aeDGJf-2" value="app" style="ellipse" parent="s4x-vn-7q49k-3aeDGJf-1" vertex="1">
                    <mxGeometry x="20" y="410" width="80" height="30" as="geometry"/>
                </mxCell>
                <mxCell id="s4x-vn-7q49k-3aeDGJf-3" value="Anbar" style="rounded=1;" parent="s4x-vn-7q49k-3aeDGJf-1" vertex="1">
                    <mxGeometry x="200" y="242" width="80" height="30" as="geometry"/>
                </mxCell>
                <mxCell id="s4x-vn-7q49k-3aeDGJf-4" value="" style="curved=1;noEdgeStyle=1;orthogonal=1;" parent="s4x-vn-7q49k-3aeDGJf-1" source="s4x-vn-7q49k-3aeDGJf-2" target="s4x-vn-7q49k-3aeDGJf-3" edge="1">
                    <mxGeometry relative="1" as="geometry">
                        <Array as="points">
                            <mxPoint x="112" y="413.75"/>
                            <mxPoint x="188" y="257"/>
                        </Array>
                    </mxGeometry>
                </mxCell>
                <mxCell id="s4x-vn-7q49k-3aeDGJf-5" value="fnc" style="rounded=1;" parent="s4x-vn-7q49k-3aeDGJf-1" vertex="1">
                    <mxGeometry x="200" y="380" width="80" height="30" as="geometry"/>
                </mxCell>
                <mxCell id="s4x-vn-7q49k-3aeDGJf-6" value="" style="curved=1;noEdgeStyle=1;orthogonal=1;" parent="s4x-vn-7q49k-3aeDGJf-1" source="s4x-vn-7q49k-3aeDGJf-2" target="s4x-vn-7q49k-3aeDGJf-5" edge="1">
                    <mxGeometry relative="1" as="geometry">
                        <Array as="points">
                            <mxPoint x="114" y="421.25"/>
                            <mxPoint x="188" y="395"/>
                        </Array>
                    </mxGeometry>
                </mxCell>
                <mxCell id="s4x-vn-7q49k-3aeDGJf-7" value="report" style="rounded=1;" parent="s4x-vn-7q49k-3aeDGJf-1" vertex="1">
                    <mxGeometry x="200" y="440" width="80" height="30" as="geometry"/>
                </mxCell>
                <mxCell id="s4x-vn-7q49k-3aeDGJf-8" value="" style="curved=1;noEdgeStyle=1;orthogonal=1;" parent="s4x-vn-7q49k-3aeDGJf-1" source="s4x-vn-7q49k-3aeDGJf-2" target="s4x-vn-7q49k-3aeDGJf-7" edge="1">
                    <mxGeometry relative="1" as="geometry">
                        <Array as="points">
                            <mxPoint x="114" y="428.75"/>
                            <mxPoint x="188" y="455"/>
                        </Array>
                    </mxGeometry>
                </mxCell>
                <mxCell id="s4x-vn-7q49k-3aeDGJf-9" value="admin" style="rounded=1;" parent="s4x-vn-7q49k-3aeDGJf-1" vertex="1">
                    <mxGeometry x="200" y="578" width="80" height="30" as="geometry"/>
                </mxCell>
                <mxCell id="s4x-vn-7q49k-3aeDGJf-10" value="" style="curved=1;noEdgeStyle=1;orthogonal=1;" parent="s4x-vn-7q49k-3aeDGJf-1" source="s4x-vn-7q49k-3aeDGJf-2" target="s4x-vn-7q49k-3aeDGJf-9" edge="1">
                    <mxGeometry relative="1" as="geometry">
                        <Array as="points">
                            <mxPoint x="112" y="436.25"/>
                            <mxPoint x="188" y="593"/>
                        </Array>
                    </mxGeometry>
                </mxCell>
                <mxCell id="s4x-vn-7q49k-3aeDGJf-11" value="Entry" style="rounded=1;" parent="s4x-vn-7q49k-3aeDGJf-1" vertex="1">
                    <mxGeometry x="380" y="110" width="80" height="30" as="geometry"/>
                </mxCell>
                <mxCell id="s4x-vn-7q49k-3aeDGJf-12" value="" style="curved=1;noEdgeStyle=1;orthogonal=1;" parent="s4x-vn-7q49k-3aeDGJf-1" source="s4x-vn-7q49k-3aeDGJf-3" target="s4x-vn-7q49k-3aeDGJf-11" edge="1">
                    <mxGeometry relative="1" as="geometry">
                        <Array as="points">
                            <mxPoint x="292" y="245.75"/>
                            <mxPoint x="368" y="125"/>
                        </Array>
                    </mxGeometry>
                </mxCell>
                <mxCell id="s4x-vn-7q49k-3aeDGJf-13" value="Entry" style="rounded=1;" parent="s4x-vn-7q49k-3aeDGJf-1" vertex="1">
                    <mxGeometry x="380" y="170" width="80" height="30" as="geometry"/>
                </mxCell>
                <mxCell id="s4x-vn-7q49k-3aeDGJf-14" value="" style="curved=1;noEdgeStyle=1;orthogonal=1;" parent="s4x-vn-7q49k-3aeDGJf-1" source="s4x-vn-7q49k-3aeDGJf-3" target="s4x-vn-7q49k-3aeDGJf-13" edge="1">
                    <mxGeometry relative="1" as="geometry">
                        <Array as="points">
                            <mxPoint x="294" y="253.25"/>
                            <mxPoint x="368" y="185"/>
                        </Array>
                    </mxGeometry>
                </mxCell>
                <mxCell id="s4x-vn-7q49k-3aeDGJf-15" value="Entry" style="rounded=1;" parent="s4x-vn-7q49k-3aeDGJf-1" vertex="1">
                    <mxGeometry x="380" y="230" width="80" height="30" as="geometry"/>
                </mxCell>
                <mxCell id="s4x-vn-7q49k-3aeDGJf-16" value="" style="curved=1;noEdgeStyle=1;orthogonal=1;" parent="s4x-vn-7q49k-3aeDGJf-1" source="s4x-vn-7q49k-3aeDGJf-3" target="s4x-vn-7q49k-3aeDGJf-15" edge="1">
                    <mxGeometry relative="1" as="geometry">
                        <Array as="points">
                            <mxPoint x="294" y="260.75"/>
                            <mxPoint x="368" y="245"/>
                        </Array>
                    </mxGeometry>
                </mxCell>
                <mxCell id="s4x-vn-7q49k-3aeDGJf-17" value="Entry" style="rounded=1;" parent="s4x-vn-7q49k-3aeDGJf-1" vertex="1">
                    <mxGeometry x="380" y="290" width="80" height="30" as="geometry"/>
                </mxCell>
                <mxCell id="s4x-vn-7q49k-3aeDGJf-18" value="" style="curved=1;noEdgeStyle=1;orthogonal=1;" parent="s4x-vn-7q49k-3aeDGJf-1" source="s4x-vn-7q49k-3aeDGJf-3" target="s4x-vn-7q49k-3aeDGJf-17" edge="1">
                    <mxGeometry relative="1" as="geometry">
                        <Array as="points">
                            <mxPoint x="292" y="268.25"/>
                            <mxPoint x="368" y="305"/>
                        </Array>
                    </mxGeometry>
                </mxCell>
                <mxCell id="s4x-vn-7q49k-3aeDGJf-19" value="Entry" style="rounded=1;" parent="s4x-vn-7q49k-3aeDGJf-1" vertex="1">
                    <mxGeometry x="380" y="350" width="80" height="30" as="geometry"/>
                </mxCell>
                <mxCell id="s4x-vn-7q49k-3aeDGJf-20" value="" style="curved=1;noEdgeStyle=1;orthogonal=1;" parent="s4x-vn-7q49k-3aeDGJf-1" source="s4x-vn-7q49k-3aeDGJf-5" target="s4x-vn-7q49k-3aeDGJf-19" edge="1">
                    <mxGeometry relative="1" as="geometry">
                        <Array as="points">
                            <mxPoint x="292" y="390"/>
                            <mxPoint x="368" y="365"/>
                        </Array>
                    </mxGeometry>
                </mxCell>
                <mxCell id="s4x-vn-7q49k-3aeDGJf-21" value="Entry" style="rounded=1;" parent="s4x-vn-7q49k-3aeDGJf-1" vertex="1">
                    <mxGeometry x="380" y="410" width="80" height="30" as="geometry"/>
                </mxCell>
                <mxCell id="s4x-vn-7q49k-3aeDGJf-22" value="" style="curved=1;noEdgeStyle=1;orthogonal=1;" parent="s4x-vn-7q49k-3aeDGJf-1" source="s4x-vn-7q49k-3aeDGJf-5" target="s4x-vn-7q49k-3aeDGJf-21" edge="1">
                    <mxGeometry relative="1" as="geometry">
                        <Array as="points">
                            <mxPoint x="292" y="400"/>
                            <mxPoint x="368" y="425"/>
                        </Array>
                    </mxGeometry>
                </mxCell>
                <mxCell id="s4x-vn-7q49k-3aeDGJf-23" value="Entry" style="rounded=1;" parent="s4x-vn-7q49k-3aeDGJf-1" vertex="1">
                    <mxGeometry x="380" y="470" width="80" height="30" as="geometry"/>
                </mxCell>
                <mxCell id="s4x-vn-7q49k-3aeDGJf-24" value="" style="curved=1;noEdgeStyle=1;orthogonal=1;" parent="s4x-vn-7q49k-3aeDGJf-1" source="s4x-vn-7q49k-3aeDGJf-7" target="s4x-vn-7q49k-3aeDGJf-23" edge="1">
                    <mxGeometry relative="1" as="geometry">
                        <Array as="points">
                            <mxPoint x="292" y="455"/>
                            <mxPoint x="368" y="485"/>
                        </Array>
                    </mxGeometry>
                </mxCell>
                <mxCell id="s4x-vn-7q49k-3aeDGJf-25" value="Entry" style="rounded=1;" parent="s4x-vn-7q49k-3aeDGJf-1" vertex="1">
                    <mxGeometry x="380" y="530" width="80" height="30" as="geometry"/>
                </mxCell>
                <mxCell id="s4x-vn-7q49k-3aeDGJf-26" value="" style="curved=1;noEdgeStyle=1;orthogonal=1;" parent="s4x-vn-7q49k-3aeDGJf-1" source="s4x-vn-7q49k-3aeDGJf-9" target="s4x-vn-7q49k-3aeDGJf-25" edge="1">
                    <mxGeometry relative="1" as="geometry">
                        <Array as="points">
                            <mxPoint x="292" y="581.75"/>
                            <mxPoint x="368" y="545"/>
                        </Array>
                    </mxGeometry>
                </mxCell>
                <mxCell id="s4x-vn-7q49k-3aeDGJf-27" value="Entry" style="rounded=1;" parent="s4x-vn-7q49k-3aeDGJf-1" vertex="1">
                    <mxGeometry x="380" y="590" width="80" height="30" as="geometry"/>
                </mxCell>
                <mxCell id="s4x-vn-7q49k-3aeDGJf-28" value="" style="curved=1;noEdgeStyle=1;orthogonal=1;" parent="s4x-vn-7q49k-3aeDGJf-1" source="s4x-vn-7q49k-3aeDGJf-9" target="s4x-vn-7q49k-3aeDGJf-27" edge="1">
                    <mxGeometry relative="1" as="geometry">
                        <Array as="points">
                            <mxPoint x="294" y="589.25"/>
                            <mxPoint x="368" y="605"/>
                        </Array>
                    </mxGeometry>
                </mxCell>
                <mxCell id="s4x-vn-7q49k-3aeDGJf-29" value="Entry" style="rounded=1;" parent="s4x-vn-7q49k-3aeDGJf-1" vertex="1">
                    <mxGeometry x="380" y="650" width="80" height="30" as="geometry"/>
                </mxCell>
                <mxCell id="s4x-vn-7q49k-3aeDGJf-30" value="" style="curved=1;noEdgeStyle=1;orthogonal=1;" parent="s4x-vn-7q49k-3aeDGJf-1" source="s4x-vn-7q49k-3aeDGJf-9" target="s4x-vn-7q49k-3aeDGJf-29" edge="1">
                    <mxGeometry relative="1" as="geometry">
                        <Array as="points">
                            <mxPoint x="294" y="596.75"/>
                            <mxPoint x="368" y="665"/>
                        </Array>
                    </mxGeometry>
                </mxCell>
                <mxCell id="s4x-vn-7q49k-3aeDGJf-31" value="Entry" style="rounded=1;" parent="s4x-vn-7q49k-3aeDGJf-1" vertex="1">
                    <mxGeometry x="380" y="710" width="80" height="30" as="geometry"/>
                </mxCell>
                <mxCell id="s4x-vn-7q49k-3aeDGJf-32" value="" style="curved=1;noEdgeStyle=1;orthogonal=1;" parent="s4x-vn-7q49k-3aeDGJf-1" source="s4x-vn-7q49k-3aeDGJf-9" target="s4x-vn-7q49k-3aeDGJf-31" edge="1">
                    <mxGeometry relative="1" as="geometry">
                        <Array as="points">
                            <mxPoint x="292" y="604.25"/>
                            <mxPoint x="368" y="725"/>
                        </Array>
                    </mxGeometry>
                </mxCell>
                <mxCell id="s4x-vn-7q49k-3aeDGJf-33" value="Entry" style="rounded=1;" parent="s4x-vn-7q49k-3aeDGJf-1" vertex="1">
                    <mxGeometry x="560" y="380" width="80" height="30" as="geometry"/>
                </mxCell>
                <mxCell id="s4x-vn-7q49k-3aeDGJf-34" value="" style="curved=1;noEdgeStyle=1;orthogonal=1;" parent="s4x-vn-7q49k-3aeDGJf-1" source="s4x-vn-7q49k-3aeDGJf-21" target="s4x-vn-7q49k-3aeDGJf-33" edge="1">
                    <mxGeometry relative="1" as="geometry">
                        <Array as="points">
                            <mxPoint x="472" y="420"/>
                            <mxPoint x="548" y="395"/>
                        </Array>
                    </mxGeometry>
                </mxCell>
                <mxCell id="s4x-vn-7q49k-3aeDGJf-35" value="Entry" style="rounded=1;" parent="s4x-vn-7q49k-3aeDGJf-1" vertex="1">
                    <mxGeometry x="560" y="440" width="80" height="30" as="geometry"/>
                </mxCell>
                <mxCell id="s4x-vn-7q49k-3aeDGJf-36" value="" style="curved=1;noEdgeStyle=1;orthogonal=1;" parent="s4x-vn-7q49k-3aeDGJf-1" source="s4x-vn-7q49k-3aeDGJf-21" target="s4x-vn-7q49k-3aeDGJf-35" edge="1">
                    <mxGeometry relative="1" as="geometry">
                        <Array as="points">
                            <mxPoint x="472" y="430"/>
                            <mxPoint x="548" y="455"/>
                        </Array>
                    </mxGeometry>
                </mxCell>
                <mxCell id="s4x-vn-7q49k-3aeDGJf-37" value="Entry" style="rounded=1;" parent="s4x-vn-7q49k-3aeDGJf-1" vertex="1">
                    <mxGeometry x="740" y="380" width="80" height="30" as="geometry"/>
                </mxCell>
                <mxCell id="s4x-vn-7q49k-3aeDGJf-38" value="" style="curved=1;noEdgeStyle=1;orthogonal=1;" parent="s4x-vn-7q49k-3aeDGJf-1" source="s4x-vn-7q49k-3aeDGJf-33" target="s4x-vn-7q49k-3aeDGJf-37" edge="1">
                    <mxGeometry relative="1" as="geometry">
                        <Array as="points">
                            <mxPoint x="652" y="395"/>
                            <mxPoint x="728" y="395"/>
                        </Array>
                    </mxGeometry>
                </mxCell>
            </root>
        </mxGraphModel>
    </diagram>
</mxfile>